<svg width="167" height="166" viewBox="0 0 167 166" fill="none" xmlns="http://www.w3.org/2000/svg">
<path d="M166.275 83.0318C166.275 72.3102 153.263 63.3675 135.987 61.3206C146.757 47.6749 149.632 32.153 142.054 24.5504C134.476 16.9478 118.954 19.8475 105.284 30.6179C103.237 13.3415 94.2942 0.329346 83.5726 0.329346C72.851 0.329346 63.9082 13.3415 61.8614 30.6179C48.2157 19.8475 32.6938 16.9722 25.0912 24.5504C17.513 32.1286 20.3883 47.6506 31.1586 61.3206C13.8822 63.3675 0.870117 72.3102 0.870117 83.0318C0.870117 93.7534 13.8822 102.696 31.1586 104.743C20.3883 118.389 17.513 133.911 25.0912 141.513C32.6694 149.116 48.1913 146.216 61.8614 135.446C63.9082 152.722 72.851 165.734 83.5726 165.734C94.2942 165.734 103.237 152.722 105.284 135.446C118.93 146.216 134.451 149.091 142.054 141.513C149.632 133.935 146.757 118.413 135.987 104.743C153.263 102.696 166.275 93.7534 166.275 83.0318ZM137.717 24.5991C144.369 31.2514 138.984 47.48 125.655 60.9551C125.557 61.0526 125.436 61.1744 125.338 61.2719C124.948 61.6617 124.558 62.0516 124.144 62.4415C113.934 72.164 102.36 77.403 94.5623 76.3796C93.9043 76.2821 93.2708 76.1603 92.6616 75.9897C91.5163 75.6486 90.4929 75.1612 89.6157 74.4789C98.8996 69.9954 105.722 55.4237 105.722 38.123C105.722 36.1249 105.625 34.1755 105.454 32.2748C117.93 22.0406 131.771 18.6535 137.692 24.5991H137.717ZM90.7122 83.0562C90.7122 84.9325 89.9812 86.7113 88.641 88.0515C87.3252 89.3917 85.5464 90.1227 83.6457 90.1227C83.6457 90.1227 83.6457 90.1227 83.6213 90.1227C83.597 90.1227 83.6214 90.1227 83.597 90.1227C81.7207 90.1227 79.9419 89.3917 78.6017 88.0515C77.2615 86.7357 76.5305 84.9569 76.5305 83.0562C76.5305 83.0562 76.5305 83.0562 76.5305 83.0318C76.5305 83.0075 76.5305 83.0318 76.5305 83.0075C76.5305 81.1312 77.2615 79.3524 78.6017 78.0122C79.9175 76.672 81.6963 75.941 83.597 75.941C83.597 75.941 83.597 75.941 83.6213 75.941C83.6457 75.941 83.6213 75.941 83.6457 75.941C85.522 75.941 87.3008 76.672 88.641 78.0122C89.9812 79.328 90.7122 81.1068 90.7122 83.0075C90.7122 83.0075 90.7122 83.0075 90.7122 83.0318C90.7122 83.0562 90.7122 83.0318 90.7122 83.0562ZM80.5267 3.44836C89.9568 3.44836 97.5838 18.7266 97.7056 37.6844C97.7056 37.8306 97.7056 37.9768 97.7056 38.1473C97.7056 38.7078 97.7056 39.2682 97.7056 39.8043C97.3645 53.8886 92.8809 65.7798 86.6429 70.5802C86.1068 70.9944 85.5707 71.3356 85.0346 71.628C83.9869 72.1884 82.9147 72.5539 81.8182 72.7245C85.2052 62.9776 79.7226 47.8699 67.5146 35.6375C66.1013 34.2242 64.6636 32.9084 63.1772 31.69C64.7611 15.632 72.1444 3.47272 80.5511 3.47272L80.5267 3.44836ZM25.1399 28.9121C31.7922 22.2599 48.0208 27.645 61.4959 40.9739C61.5933 41.0714 61.7152 41.1932 61.8126 41.2907C62.2025 41.6806 62.5924 42.0705 62.9823 42.4847C72.7048 52.6946 77.9438 64.269 76.9204 72.0666C76.8229 72.7245 76.701 73.358 76.5305 73.9672C76.1893 75.1125 75.702 76.1359 75.0197 77.0131C70.5361 67.7292 55.9645 60.9064 38.6637 60.9064C36.6656 60.9064 34.7162 61.0038 32.8156 61.1744C22.5814 48.6984 19.1943 34.8578 25.1399 28.9365V28.9121ZM3.98913 86.0777C3.98913 76.6476 19.2674 69.0207 38.2251 68.8988C38.3713 68.8988 38.5175 68.8988 38.6881 68.8988C39.2486 68.8988 39.809 68.8988 40.3451 68.8988C54.4294 69.24 66.3206 73.7235 71.0966 79.9616C71.5108 80.4976 71.852 81.0337 72.1444 81.5698C72.7048 82.6176 73.0703 83.6898 73.2409 84.7863C63.494 81.3992 48.3863 86.8819 36.1539 99.0899C34.7406 100.503 33.4248 101.941 32.2064 103.427C16.1484 101.843 3.98913 94.4601 3.98913 86.0534V86.0777ZM29.4529 141.465C22.8007 134.812 28.1858 118.584 41.5147 105.109C41.6122 105.011 41.734 104.889 41.8315 104.792C42.2214 104.402 42.6112 104.012 43.0255 103.622C53.2354 93.8996 64.8098 88.6607 72.6073 89.6841C73.2653 89.7816 73.8988 89.9034 74.508 90.074C75.6532 90.4151 76.6767 90.9025 77.5539 91.5847C68.27 96.0683 61.4471 110.64 61.4471 127.941C61.4471 129.939 61.5446 131.888 61.7152 133.789C49.2391 144.023 35.3985 147.41 29.4773 141.465H29.4529ZM86.6185 162.615C77.1884 162.615 69.5614 147.337 69.4396 128.379C69.4396 128.233 69.4396 128.087 69.4396 127.916C69.4396 127.356 69.4396 126.795 69.4396 126.259C69.7807 112.175 74.2643 100.284 80.5023 95.4835C81.0384 95.0693 81.5745 94.7281 82.1106 94.4357C83.1584 93.8753 84.2305 93.5098 85.3271 93.3392C81.94 103.086 87.4226 118.194 99.6306 130.426C101.044 131.839 102.482 133.155 103.968 134.374C102.384 150.432 95.0009 162.591 86.5942 162.591L86.6185 162.615ZM142.005 137.152C135.353 143.804 119.124 138.419 105.649 125.09C105.552 124.992 105.43 124.87 105.333 124.773C104.943 124.383 104.553 123.993 104.163 123.579C94.4404 113.369 89.2015 101.795 90.2249 93.9971C90.3223 93.3392 90.4442 92.7056 90.6148 92.0965C90.9559 90.9512 91.4432 89.9278 92.1255 89.0506C96.6091 98.3345 111.181 105.157 128.481 105.157C130.48 105.157 132.429 105.06 134.33 104.889C144.564 117.365 147.951 131.206 142.005 137.127V137.152ZM128.944 97.1649C128.798 97.1649 128.652 97.1649 128.481 97.1649C127.921 97.1649 127.361 97.1649 126.825 97.1649C112.74 96.8237 100.849 92.3401 96.073 86.1021C95.6588 85.566 95.3176 85.03 95.0252 84.4939C94.4648 83.4461 94.0993 82.3739 93.9287 81.2774C103.676 84.6644 118.783 79.1818 131.016 66.9738C132.429 65.5605 133.745 64.1228 134.963 62.6364C151.021 64.2203 163.18 71.6036 163.18 80.0103C163.18 89.4404 147.902 97.0674 128.944 97.1892V97.1649Z" fill="white"/>
</svg>
