<svg width="166" height="167" viewBox="0 0 166 167" fill="none" xmlns="http://www.w3.org/2000/svg">
<path d="M83.2384 0.614258C37.6472 0.614258 0.535889 37.7012 0.535889 83.3167C0.535889 128.932 37.6229 166.019 83.2384 166.019C128.854 166.019 165.917 128.932 165.917 83.3167C165.917 37.7012 128.83 0.614258 83.2384 0.614258ZM84.3593 2.90478C122.129 3.44086 153.66 30.0986 161.677 65.6261C150.833 43.6225 120.35 27.6619 84.3593 27.3208V2.92915V2.90478ZM84.3593 29.5869C124.395 29.9524 157.412 49.958 162.846 75.8116C153.294 64.3834 122.299 56.1716 84.3593 56.001V29.5869ZM84.3593 74.2521V58.2672C126.247 58.4621 161.604 69.2081 163.553 82.1715H84.3593V74.2521ZM82.0931 163.704C44.3239 163.168 12.7926 136.51 4.77579 100.983C15.6192 122.987 46.1027 138.947 82.0931 139.288V163.704ZM82.0931 137.022C42.0577 136.657 9.04007 116.651 3.60617 90.7975C13.1581 102.226 44.1533 110.438 82.0931 110.608V137.022ZM82.0931 74.2521V108.342C40.2058 108.147 4.8489 97.401 2.89952 84.4376H45.6884V82.1715H2.89952C4.8489 69.2081 40.2058 58.4621 82.0931 58.2672V74.2521ZM82.0931 56.001C44.1533 56.1716 13.1581 64.359 3.60617 75.8116C9.04007 49.958 42.0821 29.9524 82.0931 29.5869V56.001ZM82.0931 27.3208C46.127 27.6619 15.6192 43.6225 4.77579 65.6261C12.7682 30.123 44.3239 3.44086 82.0931 2.90478V27.3208ZM84.3593 163.704V139.288C120.325 138.947 150.833 122.987 161.677 100.983C153.684 136.486 122.129 163.168 84.3593 163.704ZM84.3593 137.022V110.608C122.299 110.438 153.294 102.25 162.846 90.7975C157.412 116.651 124.37 136.632 84.3593 137.022ZM84.3593 108.342V84.4376H163.553C161.604 97.401 126.247 108.147 84.3593 108.342Z" fill="white"/>
<path d="M63.3304 91.6496C67.8383 91.6496 70.3481 88.9448 70.5674 85.2654H65.7671C65.6209 86.6787 65.0848 87.9701 63.1354 87.9701C61.186 87.9701 60.1139 86.2644 60.1139 83.316C60.1139 80.3675 61.0886 78.6375 63.1354 78.6375C65.1823 78.6375 65.6209 80.0508 65.7671 81.3179H70.5674C70.2019 77.6871 67.5946 74.958 63.0136 74.958C58.1889 74.958 55.2161 78.4425 55.2161 83.316C55.2161 88.1894 58.3351 91.6496 63.306 91.6496H63.3304Z" fill="white"/>
<path d="M63.1113 97.206C71.518 97.206 76.7814 91.3091 76.7814 83.341C76.7814 75.3729 71.4937 69.4517 63.1113 69.4517C54.729 69.4517 49.3926 75.3973 49.3926 83.341C49.3926 91.2847 54.7046 97.206 63.1113 97.206ZM63.1113 71.3036C70.3484 71.3036 74.564 76.5182 74.564 83.341C74.564 90.1638 70.3728 95.3297 63.1113 95.3297C55.8499 95.3297 51.6344 90.1395 51.6344 83.341C51.6344 76.5425 55.8255 71.3036 63.1113 71.3036Z" fill="white"/>
</svg>
