<svg width="132" height="132" viewBox="0 0 132 132" fill="none" xmlns="http://www.w3.org/2000/svg">
<path d="M120.093 26.984C120.093 20.6605 125.216 15.5374 131.539 15.5374V12.2151C125.216 12.2151 120.093 7.09209 120.093 0.768555H116.77C116.77 7.09209 111.647 12.2151 105.324 12.2151C99.0001 12.2151 93.8771 7.09209 93.8771 0.768555H90.5548C90.5548 7.09209 85.4317 12.2151 79.1082 12.2151C72.7847 12.2151 67.6616 7.09209 67.6616 0.768555H64.3393C64.3393 7.09209 59.2163 12.2151 52.8928 12.2151C46.5692 12.2151 41.4462 7.09209 41.4462 0.768555H38.1239C38.1239 7.09209 33.0009 12.2151 26.6773 12.2151C20.3538 12.2151 15.2308 7.09209 15.2308 0.768555H11.9085C11.9085 7.09209 6.78545 12.2151 0.461914 12.2151V15.5374C6.78545 15.5374 11.9085 20.6605 11.9085 26.984C11.9085 33.3075 6.78545 38.4306 0.461914 38.4306V41.7528C6.78545 41.7528 11.9085 46.8759 11.9085 53.1994C11.9085 59.5229 6.78545 64.646 0.461914 64.646V67.9683C6.78545 67.9683 11.9085 73.0913 11.9085 79.4148C11.9085 85.7384 6.78545 90.8614 0.461914 90.8614V94.1837C6.78545 94.1837 11.9085 99.3067 11.9085 105.63C11.9085 111.954 6.78545 117.077 0.461914 117.077V120.399C6.78545 120.399 11.9085 125.522 11.9085 131.846H15.2308C15.2308 125.522 20.3538 120.399 26.6773 120.399C33.0009 120.399 38.1239 125.522 38.1239 131.846H41.4462C41.4462 125.522 46.5692 120.399 52.8928 120.399C59.2163 120.399 64.3393 125.522 64.3393 131.846H67.6616C67.6616 125.522 72.7847 120.399 79.1082 120.399C85.4317 120.399 90.5548 125.522 90.5548 131.846H93.8771C93.8771 125.522 99.0001 120.399 105.324 120.399C111.647 120.399 116.77 125.522 116.77 131.846H120.093C120.093 125.522 125.216 120.399 131.539 120.399V117.077C125.216 117.077 120.093 111.954 120.093 105.63C120.093 99.3067 125.216 94.1837 131.539 94.1837V90.8614C125.216 90.8614 120.093 85.7384 120.093 79.4148C120.093 73.0913 125.216 67.9683 131.539 67.9683V64.646C125.216 64.646 120.093 59.5229 120.093 53.1994C120.093 46.8759 125.216 41.7528 131.539 41.7528V38.4306C125.216 38.4306 120.093 33.3075 120.093 26.984ZM26.6634 117.063C20.3399 117.063 15.2168 111.94 15.2168 105.616C15.2168 99.2928 20.3399 94.1698 26.6634 94.1698C32.9869 94.1698 38.11 99.2928 38.11 105.616C38.11 111.94 32.9869 117.063 26.6634 117.063ZM26.6634 90.8475C20.3399 90.8475 15.2168 85.7244 15.2168 79.4009C15.2168 73.0773 20.3399 67.9543 26.6634 67.9543C32.9869 67.9543 38.11 73.0773 38.11 79.4009C38.11 85.7244 32.9869 90.8475 26.6634 90.8475ZM26.6634 64.632C20.3399 64.632 15.2168 59.509 15.2168 53.1854C15.2168 46.8619 20.3399 41.7389 26.6634 41.7389C32.9869 41.7389 38.11 46.8619 38.11 53.1854C38.11 59.509 32.9869 64.632 26.6634 64.632ZM26.6634 38.4166C20.3399 38.4166 15.2168 33.2935 15.2168 26.97C15.2168 20.6465 20.3399 15.5235 26.6634 15.5235C32.9869 15.5235 38.11 20.6465 38.11 26.97C38.11 33.2935 32.9869 38.4166 26.6634 38.4166ZM52.8788 117.063C46.5553 117.063 41.4322 111.94 41.4322 105.616C41.4322 99.2928 46.5553 94.1698 52.8788 94.1698C59.2023 94.1698 64.3254 99.2928 64.3254 105.616C64.3254 111.94 59.2023 117.063 52.8788 117.063ZM52.8788 90.8475C46.5553 90.8475 41.4322 85.7244 41.4322 79.4009C41.4322 73.0773 46.5553 67.9543 52.8788 67.9543C59.2023 67.9543 64.3254 73.0773 64.3254 79.4009C64.3254 85.7244 59.2023 90.8475 52.8788 90.8475ZM52.8788 64.632C46.5553 64.632 41.4322 59.509 41.4322 53.1854C41.4322 46.8619 46.5553 41.7389 52.8788 41.7389C59.2023 41.7389 64.3254 46.8619 64.3254 53.1854C64.3254 59.509 59.2023 64.632 52.8788 64.632ZM52.8788 38.4166C46.5553 38.4166 41.4322 33.2935 41.4322 26.97C41.4322 20.6465 46.5553 15.5235 52.8788 15.5235C59.2023 15.5235 64.3254 20.6465 64.3254 26.97C64.3254 33.2935 59.2023 38.4166 52.8788 38.4166ZM79.0942 117.063C72.7707 117.063 67.6477 111.94 67.6477 105.616C67.6477 99.2928 72.7707 94.1698 79.0942 94.1698C85.4178 94.1698 90.5408 99.2928 90.5408 105.616C90.5408 111.94 85.4178 117.063 79.0942 117.063ZM79.0942 90.8475C72.7707 90.8475 67.6477 85.7244 67.6477 79.4009C67.6477 73.0773 72.7707 67.9543 79.0942 67.9543C85.4178 67.9543 90.5408 73.0773 90.5408 79.4009C90.5408 85.7244 85.4178 90.8475 79.0942 90.8475ZM79.0942 64.632C72.7707 64.632 67.6477 59.509 67.6477 53.1854C67.6477 46.8619 72.7707 41.7389 79.0942 41.7389C85.4178 41.7389 90.5408 46.8619 90.5408 53.1854C90.5408 59.509 85.4178 64.632 79.0942 64.632ZM79.0942 38.4166C72.7707 38.4166 67.6477 33.2935 67.6477 26.97C67.6477 20.6465 72.7707 15.5235 79.0942 15.5235C85.4178 15.5235 90.5408 20.6465 90.5408 26.97C90.5408 33.2935 85.4178 38.4166 79.0942 38.4166ZM105.31 117.063C98.9862 117.063 93.8631 111.94 93.8631 105.616C93.8631 99.2928 98.9862 94.1698 105.31 94.1698C111.633 94.1698 116.756 99.2928 116.756 105.616C116.756 111.94 111.633 117.063 105.31 117.063ZM105.31 90.8475C98.9862 90.8475 93.8631 85.7244 93.8631 79.4009C93.8631 73.0773 98.9862 67.9543 105.31 67.9543C111.633 67.9543 116.756 73.0773 116.756 79.4009C116.756 85.7244 111.633 90.8475 105.31 90.8475ZM105.31 64.632C98.9862 64.632 93.8631 59.509 93.8631 53.1854C93.8631 46.8619 98.9862 41.7389 105.31 41.7389C111.633 41.7389 116.756 46.8619 116.756 53.1854C116.756 59.509 111.633 64.632 105.31 64.632ZM105.31 38.4166C98.9862 38.4166 93.8631 33.2935 93.8631 26.97C93.8631 20.6465 98.9862 15.5235 105.31 15.5235C111.633 15.5235 116.756 20.6465 116.756 26.97C116.756 33.2935 111.633 38.4166 105.31 38.4166Z" fill="white"/>
</svg>
