<svg width="13" height="21" viewBox="0 0 13 21" fill="none" xmlns="http://www.w3.org/2000/svg">
<path fill-rule="evenodd" clip-rule="evenodd" d="M11.6662 9.23605L8.9724 9.24879C8.69627 9.2501 8.47135 9.0273 8.47005 8.75116C8.46874 8.47502 8.69154 8.25011 8.96768 8.2488L12.142 8.2338C12.6686 8.2338 13.0081 8.79307 12.7711 9.24247L7.48425 20.2986C7.18452 20.8441 6.35804 20.6286 6.35804 20.0088V13.0948H1.57404C1.04983 13.0948 0.713004 12.5404 0.944375 12.0883L6.24383 0.930024C6.54257 0.386309 7.37004 0.596983 7.37004 1.2188V8.7318C7.37004 9.00794 7.14618 9.2318 6.87004 9.2318C6.5939 9.2318 6.37004 9.00794 6.37004 8.7318V2.99343L2.04809 12.0948H6.35834V11.3917C6.35834 11.1156 6.5822 10.8917 6.85834 10.8917C7.13448 10.8917 7.35834 11.1156 7.35834 11.3917V12.6947C7.35834 12.7006 7.35824 12.7064 7.35804 12.7122V18.2462L11.6662 9.23605ZM1.84123 12.5304C1.84404 12.5249 1.84667 12.5194 1.84911 12.5138L1.84123 12.5304Z" fill="#325FEC"/>
</svg>
