<svg width="21" height="21" viewBox="0 0 21 21" fill="none" xmlns="http://www.w3.org/2000/svg">
<path fill-rule="evenodd" clip-rule="evenodd" d="M10.8701 20.6177C16.3933 20.6177 20.8701 16.1408 20.8701 10.6177C20.8701 5.09453 16.3933 0.617676 10.8701 0.617676C5.34697 0.617676 0.870117 5.09453 0.870117 10.6177C0.870117 16.1408 5.34697 20.6177 10.8701 20.6177ZM10.8701 1.61768C15.841 1.61768 19.8701 5.64682 19.8701 10.6177C19.8701 15.5885 15.841 19.6177 10.8701 19.6177C5.89926 19.6177 1.87012 15.5885 1.87012 10.6177C1.87012 5.64682 5.89926 1.61768 10.8701 1.61768ZM3.37012 11.1177H4.37012C4.64626 11.1177 4.87012 10.8938 4.87012 10.6177C4.87012 10.3415 4.64626 10.1177 4.37012 10.1177H3.37012C3.09397 10.1177 2.87012 10.3415 2.87012 10.6177C2.87012 10.8938 3.09397 11.1177 3.37012 11.1177ZM18.3701 11.1177H17.3701C17.094 11.1177 16.8701 10.8938 16.8701 10.6177C16.8701 10.3415 17.094 10.1177 17.3701 10.1177H18.3701C18.6463 10.1177 18.8701 10.3415 18.8701 10.6177C18.8701 10.8938 18.6463 11.1177 18.3701 11.1177ZM10.3701 3.11768V4.11768C10.3701 4.39382 10.594 4.61768 10.8701 4.61768C11.1463 4.61768 11.3701 4.39382 11.3701 4.11768V3.11768C11.3701 2.84153 11.1463 2.61768 10.8701 2.61768C10.594 2.61768 10.3701 2.84153 10.3701 3.11768ZM10.3701 18.1177V17.1177C10.3701 16.8415 10.594 16.6177 10.8701 16.6177C11.1463 16.6177 11.3701 16.8415 11.3701 17.1177V18.1177C11.3701 18.3938 11.1463 18.6177 10.8701 18.6177C10.594 18.6177 10.3701 18.3938 10.3701 18.1177ZM11.3335 10.7746C11.2995 10.8961 11.2199 11.0048 11.102 11.0729L8.12504 12.7919C7.8859 12.93 7.5801 12.848 7.44202 12.6089C7.30393 12.3698 7.38585 12.064 7.62499 11.9259L10.4424 10.299L11.9281 6.21572C12.0225 5.95622 12.3094 5.82239 12.5689 5.91681C12.8284 6.01122 12.9622 6.29813 12.8678 6.55763L11.3335 10.7746Z" fill="#325FEC"/>
</svg>
