<svg width="20" height="20" viewBox="0 0 20 20" fill="none" xmlns="http://www.w3.org/2000/svg">
<path fill-rule="evenodd" clip-rule="evenodd" d="M16.8667 3.62468V1.11768C16.8667 0.841533 16.6429 0.617676 16.3667 0.617676C16.0906 0.617676 15.8667 0.841533 15.8667 1.11768V3.91437L13.747 6.03406C12.7012 5.14744 11.3477 4.61268 9.86922 4.61268C6.55608 4.61268 3.86922 7.29953 3.86922 10.6127C3.86922 11.7939 4.21192 12.9257 4.84489 13.8925C4.99615 14.1236 5.30606 14.1883 5.53709 14.037C5.76812 13.8857 5.8328 13.5758 5.68154 13.3448C5.15436 12.5396 4.86922 11.5979 4.86922 10.6127C4.86922 7.85182 7.10836 5.61268 9.86922 5.61268C11.0715 5.61268 12.1746 6.03701 13.037 6.74406L11.3321 8.44903C11.3153 8.46201 11.2991 8.47621 11.2837 8.49162C11.2682 8.50704 11.2541 8.52321 11.2411 8.54002L9.52016 10.2609C9.3249 10.4562 9.3249 10.7728 9.52016 10.968C9.71543 11.1633 10.032 11.1633 10.2273 10.968L11.5948 9.60053C11.7723 9.90252 11.8692 10.2498 11.8692 10.6132C11.8692 11.7174 10.9737 12.6132 9.86922 12.6132C8.76536 12.6132 7.86922 11.717 7.86922 10.6132C7.86922 9.65942 8.54359 8.84262 9.46684 8.65295C9.73733 8.59738 9.91156 8.33305 9.85599 8.06256C9.80042 7.79206 9.53609 7.61783 9.2656 7.6734C7.87981 7.95811 6.86922 9.18215 6.86922 10.6132C6.86922 12.2693 8.21308 13.6132 9.86922 13.6132C11.526 13.6132 12.8692 12.2696 12.8692 10.6132C12.8692 9.98023 12.6721 9.37792 12.3172 8.87805L13.7435 7.4518C14.4472 8.31325 14.8692 9.41371 14.8692 10.6127C14.8692 13.3739 12.6307 15.6127 9.86922 15.6127C8.87453 15.6127 7.92355 15.3216 7.11124 14.7838C6.88099 14.6313 6.57075 14.6944 6.41831 14.9247C6.26587 15.1549 6.32894 15.4651 6.5592 15.6176C7.53389 16.2629 8.67655 16.6127 9.86922 16.6127C13.183 16.6127 15.8692 13.9261 15.8692 10.6127C15.8692 9.1375 15.3368 7.78659 14.4536 6.74169L16.5706 4.62468H19.3727C19.6489 4.62468 19.8727 4.40082 19.8727 4.12468C19.8727 3.84853 19.6489 3.62468 19.3727 3.62468H16.8667ZM17.8701 10.6131C17.8701 9.10464 17.4525 7.65986 16.6751 6.40546C16.5296 6.17073 16.602 5.86253 16.8367 5.71707C17.0715 5.57161 17.3797 5.64397 17.5251 5.8787C18.3998 7.29014 18.8701 8.91711 18.8701 10.6131C18.8701 15.5832 14.8403 19.6131 9.87012 19.6131C4.89931 19.6131 0.870117 15.5836 0.870117 10.6131C0.870117 5.64193 4.89897 1.61308 9.87012 1.61308C10.7715 1.61308 11.657 1.74624 12.505 2.00482C12.7691 2.08537 12.9179 2.36479 12.8374 2.62892C12.7568 2.89306 12.4774 3.04188 12.2133 2.96133C11.4595 2.73146 10.6722 2.61308 9.87012 2.61308C5.45126 2.61308 1.87012 6.19422 1.87012 10.6131C1.87012 15.0313 5.45161 18.6131 9.87012 18.6131C14.288 18.6131 17.8701 15.0309 17.8701 10.6131Z" fill="#325FEC"/>
</svg>
